<svg width="20" height="20" viewBox="0 0 20 20" fill="none" xmlns="http://www.w3.org/2000/svg">
<path d="M9.99887 14.3093C10.6432 14.3113 11.2796 14.1677 11.8606 13.8894C12.4417 13.611 12.9524 13.205 13.3546 12.7017L18.7702 14.8044C17.7034 16.7519 16.0187 18.2889 13.9818 19.1731C11.9448 20.0573 9.67155 20.2383 7.52034 19.6877C5.36913 19.1371 3.4624 17.8861 2.10075 16.132C0.739098 14.378 0 12.2206 0 10C0 7.77944 0.739098 5.62205 2.10075 3.86797C3.4624 2.1139 5.36913 0.862933 7.52034 0.312314C9.67155 -0.238304 11.9448 -0.0572543 13.9818 0.826925C16.0187 1.7111 17.7034 3.24811 18.7702 5.1956L13.3546 7.29829C12.8962 6.74602 12.3063 6.31794 11.6391 6.05344C10.9718 5.78895 10.2488 5.69653 9.53651 5.78472C8.82423 5.87291 8.14558 6.13887 7.56302 6.5581C6.98046 6.97733 6.51269 7.53637 6.20283 8.18376C5.89296 8.83115 5.75092 9.54608 5.78979 10.2628C5.82866 10.9794 6.04722 11.6748 6.42529 12.2849C6.80336 12.895 7.32881 13.4001 7.95329 13.7539C8.57778 14.1077 9.28122 14.2987 9.99887 14.3093ZM18.6297 6.36308C19.1138 7.51662 19.3632 8.75509 19.3632 10.0061C19.3632 11.2571 19.1138 12.4956 18.6297 13.6491C18.5685 13.7836 18.5135 13.912 18.4524 14.0403L18.2568 13.9609L17.8045 13.7836L17.9879 13.3741C18.4357 12.3098 18.6664 11.1669 18.6664 10.0122C18.6664 8.8576 18.4357 7.71461 17.9879 6.65037L17.8045 6.24083L17.884 6.20415L18.0734 6.13692L18.2568 6.06357L18.4463 5.99022C18.5074 6.11858 18.5624 6.24695 18.6235 6.38142L18.6297 6.36308Z" fill="#76B99C"/>
</svg>
