<svg width="143" height="35" viewBox="0 0 143 35" fill="none" xmlns="http://www.w3.org/2000/svg">
<path d="M66.1799 35H72.5436V33.5745H68.2549V32.4206H71.3677V31.1479H68.2549V30.0618H72.4743V28.6364H66.1799V35Z" fill="#76B99C"/>
<path d="M91.0154 35H92.695V28.6364H91.0154V32.3697L88.0296 28.6364H86.3314V35H88.0109V32.8109C88.0109 31.9964 88.0109 31.2158 88.0109 31.1988L91.0154 35Z" fill="#76B99C"/>
<path d="M107.544 33.0855C107.729 33.7046 108.108 34.233 108.615 34.5781C109.122 34.9233 109.724 35.0632 110.316 34.9735C111.911 34.9735 112.847 34.2561 112.847 32.8023C112.847 31.3485 111.789 30.8199 110.836 30.6311C109.883 30.4423 109.294 30.329 109.294 29.7437C109.294 29.1584 109.554 29.1207 110.143 29.1207C110.394 29.0802 110.65 29.1375 110.865 29.2827C111.081 29.4278 111.242 29.6513 111.321 29.9136L112.812 29.4794C112.642 28.8805 112.287 28.3646 111.806 28.0201C111.325 27.6756 110.75 27.524 110.178 27.5914C108.722 27.5914 107.717 28.3088 107.717 29.7437C107.717 31.1786 108.809 31.6317 109.692 31.9149C110.576 32.1981 111.27 32.0848 111.27 32.7645C111.27 33.4442 110.906 33.4442 110.316 33.4442C109.727 33.4442 109.155 33.1421 109.017 32.5946L107.544 33.0855Z" fill="#76B99C"/>
<path d="M51.3314 21.3309V24.3939H46.533C45.629 24.3939 44.9162 24.3939 44.4121 24.3939C43.7557 24.342 43.1077 24.2056 42.4823 23.988C41.768 23.7661 41.1049 23.3891 40.5352 22.8808C39.7478 22.1264 39.1959 21.1351 38.953 20.0392C38.7075 18.7581 38.5909 17.453 38.6053 16.1458V0H41.7869V16.0719C41.7475 17.1478 41.8888 18.2224 42.2041 19.2457C42.5092 19.9602 43.0209 20.5528 43.6649 20.9377C44.3089 21.3226 45.0517 21.4797 45.7855 21.3862L51.3314 21.3309Z" fill="#76B99C"/>
<path d="M57.6951 24.3939H54.5133V0H57.6951V24.3939Z" fill="#76B99C"/>
<path d="M73.9998 16.853H74.2331L77.0149 6.09338C77.3391 4.22226 78.307 2.53216 79.7429 1.3297C81.4192 0.344373 83.3427 -0.110014 85.2708 0.0238425V24.3939H82.0761V3.72073C81.5416 3.94544 81.0808 4.32192 80.748 4.80588C80.3577 5.45111 80.0615 6.15129 79.8686 6.88425L75.633 21.819H72.6358L68.3643 6.88425C68.183 6.14443 67.8926 5.43735 67.5028 4.7875C67.1799 4.30573 66.7236 3.93416 66.1927 3.72073V24.3939H62.998V0.0238425C64.9206 -0.113032 66.8392 0.341677 68.5079 1.3297C69.9327 2.54479 70.9031 4.22807 71.2539 6.09338L73.9998 16.853Z" fill="#76B99C"/>
<path d="M92.882 24.3939H89.5154V9.09311C89.4619 6.71488 90.404 4.40961 92.1448 2.65938C92.9968 1.78726 94.0445 1.09785 95.2143 0.639337C96.3842 0.180819 97.6481 -0.0357289 98.9178 0.00479941H107.544V24.3939H103.998V3.04652H98.9178C98.1132 3.0079 97.3083 3.12026 96.5518 3.37687C95.7952 3.63348 95.1025 4.02903 94.5153 4.53973C93.9143 5.19908 93.4605 5.96218 93.1801 6.78489C92.8997 7.60759 92.7984 8.47359 92.882 9.33277V12.3008C93.6664 11.5886 94.6036 11.0369 95.6331 10.6812C96.6626 10.3256 97.7613 10.1739 98.8581 10.2361H102.284V13.2962H98.8581C97.6467 13.26 96.4382 13.4287 95.2923 13.794C94.3284 14.1501 93.4784 14.7274 92.8221 15.4715L92.882 24.3939Z" fill="#76B99C"/>
<path d="M109.665 3.07455V0H124.513V3.07455H118.677V24.3939H115.501V3.07455H109.665Z" fill="#76B99C"/>
<path d="M142.544 24.3939H128.76V5.838C128.729 5.06863 128.857 4.30106 129.138 3.58458C129.418 2.8681 129.845 2.21857 130.389 1.67765C131.08 1.00716 131.942 0.542017 132.879 0.333793C133.991 0.0928646 135.128 -0.0183076 136.265 0.00245069H142.544V3.0767H135.826C133.282 3.0767 132.019 4.14441 132.019 6.27981V10.2561H140.018V13.3119H132.019V21.3381H142.544V24.3939Z" fill="#76B99C"/>
<path d="M17.3496 24.8288C18.4675 24.8322 19.5718 24.5832 20.58 24.1002C21.5882 23.6172 22.4744 22.9127 23.1723 22.0394L32.5692 25.6879C30.7181 29.0671 27.7949 31.734 24.2605 33.2682C20.7261 34.8024 16.7816 35.1165 13.0489 34.1611C9.31626 33.2057 6.0078 31.0351 3.64512 27.9915C1.28245 24.9479 0 21.2045 0 17.3515C0 13.4985 1.28245 9.75511 3.64512 6.71152C6.0078 3.66794 9.31626 1.49732 13.0489 0.541913C16.7816 -0.413495 20.7261 -0.099345 24.2605 1.43484C27.7949 2.96903 30.7181 5.63597 32.5692 9.01516L23.1723 12.6636C22.3769 11.7054 21.3532 10.9626 20.1955 10.5036C19.0378 10.0447 17.7832 9.88435 16.5473 10.0374C15.3114 10.1904 14.1338 10.6519 13.123 11.3793C12.1122 12.1067 11.3005 13.0767 10.7628 14.2001C10.2252 15.3234 9.97873 16.5639 10.0462 17.8074C10.1136 19.051 10.4928 20.2576 11.1489 21.3162C11.8049 22.3747 12.7166 23.2513 13.8002 23.8651C14.8838 24.479 16.1043 24.8104 17.3496 24.8288ZM32.3253 11.0409C33.1654 13.0425 33.5981 15.1914 33.5981 17.3621C33.5981 19.5328 33.1654 21.6818 32.3253 23.6833C32.2192 23.9167 32.1238 24.1394 32.0178 24.3621L31.6784 24.2242L30.8935 23.9167L31.2117 23.2061C31.9888 21.3595 32.3891 19.3762 32.3891 17.3727C32.3891 15.3693 31.9888 13.386 31.2117 11.5394L30.8935 10.8288L31.0314 10.7652L31.3602 10.6485L31.6784 10.5212L32.0071 10.3939C32.1132 10.6167 32.2086 10.8394 32.3147 11.0727L32.3253 11.0409Z" fill="#76B99C"/>
<path d="M49.2103 35H53.4527V33.5745H50.6902V28.6364H49.2103V35Z" fill="#76B99C"/>
</svg>
